<svg xmlns="http://www.w3.org/2000/svg" viewBox="0 17.049999237060547 135.39999389648438 32.150001525878906" data-asc="0.976" width="135.39999389648438" height="32.150001525878906"><defs/><g><g><g transform="translate(0, 0)"><path d="M6.75 17.05L27.80 17.05L27 20.85L16.75 20.85L14.80 30.00L23.35 30.00L22.55 33.85L14 33.85L10.80 48.80L0 48.80L6.75 17.05ZM37.90 37.45Q37.65 38.55 37.50 39.35Q37.35 40.15 37.35 40.85Q37.35 42.60 38.58 43.65Q39.80 44.70 42.20 44.70Q43.95 44.70 45.08 44.10Q46.20 43.50 46.92 42.50Q47.65 41.50 48.08 40.20Q48.50 38.90 48.80 37.45L53.05 17.05L57.60 17.05L53.25 37.55Q52.75 39.95 51.80 42.05Q50.85 44.15 49.08 45.75Q47.30 47.35 44.50 48.27Q41.70 49.20 37.55 49.20Q31.80 49.20 29.05 47.32Q26.30 45.45 26.30 41.55Q26.30 39.80 26.75 37.10Q27.20 34.40 27.90 31.25L30.95 17.05L42.30 17.05L37.90 37.45ZM87.20 24.60Q87.20 27.55 85.55 30.05Q83.90 32.55 80.10 33.85L85.90 48.80L74.75 48.80L70.35 34.95L69.80 34.95L66.85 48.80L56.05 48.80L62.80 17.05L75.95 17.05Q78.25 17.05 80.30 17.32Q82.35 17.60 83.88 18.42Q85.40 19.25 86.30 20.72Q87.20 22.20 87.20 24.60M72.80 31.75Q74.10 31.75 75.03 30.87Q75.95 30.00 76.53 28.75Q77.10 27.50 77.35 26.07Q77.60 24.65 77.60 23.60Q77.60 22.30 77.15 21.37Q76.70 20.45 75.20 20.45L72.95 20.45L70.45 31.75L72.80 31.75ZM115.40 48.80L103.70 48.80L103 40.85L93.75 40.85L90.20 48.80L85.35 48.80L100.10 17.05L111.95 17.05L115.40 48.80M95.40 37.20L102.65 37.20L101.50 23.60L95.40 37.20ZM128.60 48.80L117.80 48.80L124.55 17.05L135.40 17.05L128.60 48.80Z"/></g></g></g></svg>